/* XPM */
static char *c950e8f2ba8f4594b1456faf003297f9xkYzdrlYlubWyPzv[] = {
/* columns rows colors chars-per-pixel */
"20 51 2 1 ",
"  c #fbf1c7",
". c #d8e49c",
/* pixels */
"                    ",
"                    ",
"                    ",
"                    ",
"                    ",
"                    ",
"                    ",
"                   .",
"                  ..",
"                 ...",
"               .....",
"              ......",
"             .......",
"            ........",
"           .........",
"          ..........",
"         ...........",
"        ............",
"       .............",
"      ..............",
"     ...............",
"    ................",
"   .................",
"  ..................",
" ...................",
" ...................",
"  ..................",
"   .................",
"    ................",
"     ...............",
"      ..............",
"       .............",
"        ............",
"         ...........",
"          ..........",
"           .........",
"            ........",
"             .......",
"              ......",
"               .....",
"                 ...",
"                  ..",
"                   .",
"                    ",
"                    ",
"                    ",
"                    ",
"                    ",
"                    ",
"                    ",
"                    "
};
