/* XPM */
static char *_90a23c319bc4f9fc66200db7c9e33e9Gv5klvkNmRU5ENFt[] = {
/* columns rows colors chars-per-pixel */
"16 52 2 1 ",
"  c #CB98FB",
". c #AB72E1",
/* pixels */
"                ",
"                ",
"                ",
"                ",
"                ",
"                ",
"                ",
"                ",
"                ",
"                ",
"                ",
"               .",
"              ..",
"             ...",
"            ....",
"           .....",
"          ......",
"         .......",
"        ........",
"       .........",
"      ..........",
"     ...........",
"    ............",
"   .............",
"  ..............",
" ...............",
"................",
" ...............",
"  ..............",
"   .............",
"    ............",
"     ...........",
"      ..........",
"       .........",
"        ........",
"         .......",
"          ......",
"           .....",
"            ....",
"             ...",
"              ..",
"               .",
"                ",
"                ",
"                ",
"                ",
"                ",
"                ",
"                ",
"                ",
"                ",
"                "
};
