/* XPM */
static char *_251ebb711774e93ab23e77d1119c904bTtBzZZPWzAGZiaO[] = {
/* columns rows colors chars-per-pixel */
"16 52 9 1 ",
"  c None",
". c #CA98FA",
"X c #CB98FA",
"o c #CA99FA",
"O c #CB99FA",
"+ c #CA98FB",
"@ c #CB98FB",
"# c #CA99FB",
"$ c #CB99FB",
/* pixels */
"                ",
"                ",
"                ",
"                ",
"                ",
"                ",
"                ",
"                ",
"                ",
"                ",
"               @",
"              $$",
"             $@@",
"            X@@@",
"           $X$@$",
"          ++++@@",
"         @@@@$XX",
"        +@@@X$+X",
"       $$@$$XX@@",
"      $$X@$++X$$",
"     +$+XX@+@@@$",
"    @@$$XX++@+@@",
"   $@@+@+@+@@@@@",
"  @@@@@@@+@@@@X$",
" $$@@@XX@XX@@+@@",
"@$@@@@XXXX@X++@@",
" $@@++XXXX$++@@@",
"  @@+@@@@@@++@@$",
"   $+@$$@@@@$+@@",
"    @@$$@@@X@++X",
"     +@@X@+X@@@@",
"      @@X$$XXX@$",
"       $@@X@X$@@",
"        @@@@++@$",
"         $X$@@@$",
"          X+@XX@",
"           +X@@@",
"            X@@@",
"             +@@",
"              @@",
"               +",
"                ",
"                ",
"                ",
"                ",
"                ",
"                ",
"                ",
"                ",
"                ",
"                ",
"                "
};
