/* XPM */
static char *_bdc223807c34e8faef4417f0443151cxm618cNqhD5yM9Ax[] = {
/* columns rows colors chars-per-pixel */
"16 52 9 1 ",
"  c None",
". c #AA72E0",
"X c #AB72E0",
"o c #AA73E0",
"O c #AB73E0",
"+ c #AA72E1",
"@ c #AB72E1",
"# c #AA73E1",
"$ c #AB73E1",
/* pixels */
"                ",
"                ",
"                ",
"                ",
"                ",
"                ",
"                ",
"                ",
"                ",
"                ",
"               @",
"              @@",
"             @@@",
"            @@@o",
"           @@@@@",
"          @@@@o@",
"         @@@@o@@",
"        @@@@@@@@",
"       @@@@@@@@@",
"      @@@oooo@@o",
"     @@@o@@@@@@@",
"    @o@@o@@@@@o@",
"   @@@@@o@@@o@@@",
"  oo@@@@@@@@@@@@",
" @@@@@@@@@o@@o@@",
"$o@@@@X@o@@@@@@@",
" $$@oo@X@@@@@o@o",
"  $@o@@Xo@@X@@@@",
"   @@@@@o@@@@@$o",
"    @@@@@@@@@$$@",
"     @@@@@@@@@o@",
"      @@@XX@@@@@",
"       o$$@@@o@@",
"        @@XX@@@@",
"         @@@@@@@",
"          @@@@oX",
"           @@@@X",
"            @@@@",
"             @@@",
"              @@",
"               @",
"                ",
"                ",
"                ",
"                ",
"                ",
"                ",
"                ",
"                ",
"                ",
"                ",
"                "
};
